<svg width="1440" height="1025" viewBox="0 0 1440 1025" fill="none" xmlns="http://www.w3.org/2000/svg">
<path d="M259.505 360.681C275.777 388.987 289.439 428.508 289.439 478.042C289.439 425.714 323.902 410.345 346.256 410.345C368.611 410.345 403.074 425.714 403.074 478.042C403.074 428.508 416.736 388.987 433.008 360.681C453.582 330.709 482.769 315.965 509.723 315.965C543.778 315.965 576.055 333.036 590.683 373.721C601.34 403.359 601.898 457.188 587.498 526.477C571.814 611.074 547.038 657.983 522.821 681.393C430.143 760.565 346.256 672.544 346.256 600.991C346.256 672.544 262.37 760.565 169.692 681.393C145.474 657.983 120.699 611.074 105.015 526.477C90.6146 457.188 91.173 403.359 101.83 373.721C116.458 333.036 148.734 315.965 182.79 315.965C209.743 315.965 238.931 330.709 259.505 360.681Z" fill="black"/>
<path fill-rule="evenodd" clip-rule="evenodd" d="M812.148 308.819C919.031 308.819 994.477 468.56 1000.07 596.166C1000.07 657.641 989.82 676.555 972.122 694.252C941.67 724.704 880.003 720.513 846.005 686.516C832.034 672.544 812.148 644.601 812.148 619.452C812.148 644.601 792.264 672.544 778.292 686.516C744.295 720.513 682.627 724.704 652.175 694.252C634.478 676.555 624.232 657.641 624.232 596.166C629.821 468.56 705.266 308.819 812.148 308.819ZM812.148 532.829C842.188 532.829 842.186 487.654 812.148 487.654C782.11 487.654 782.109 532.829 812.148 532.829Z" fill="black"/>
<path d="M1017.51 326.982C1062.01 285.533 1123.02 299.504 1176.11 396.374C1231.99 290.19 1282.29 298.107 1318.15 318.132C1375.9 360.979 1342.83 464.834 1225.94 661.367C1158.07 775.468 998.669 713.061 1102.99 541.678C1006.59 463.437 962.553 381.937 1017.51 326.982Z" fill="black"/>
</svg>
